<?xml version="1.0" encoding="UTF-8"?>
<svg width="23px" height="23px" viewBox="0 0 23 23" version="1.1" xmlns="http://www.w3.org/2000/svg" xmlns:xlink="http://www.w3.org/1999/xlink">
	<path fill="currentColor" d="M11.5189644,9.04285637 L19.6743009,1.39905698 C20.0772583,1.02137481 20.7100916,1.04186439 21.0877738,1.44482174 C21.0889317,1.44605719 21.0900865,1.44729557 21.0912382,1.44853688 L21.8503505,2.26674109 C22.2246323,2.67015827 22.202632,3.30017258 21.8011213,3.67649884 L13.6780438,11.2900627 L21.5231749,19.455408 C21.9044358,19.8522308 21.8934341,20.4825281 21.4985566,20.8658036 L20.698263,21.6425836 C20.3019602,22.0272426 19.6688656,22.0178034 19.2842066,21.6215005 C19.2830251,21.6202833 19.2818467,21.619063 19.2806715,21.6178398 L11.4049111,13.420615 L2.95533294,21.3402 C2.55237559,21.7178821 1.91954223,21.6973925 1.54186006,21.2944352 C1.54070211,21.2931997 1.5395473,21.2919614 1.53839564,21.2907201 L0.779283311,20.4725158 C0.4050015,20.0690987 0.4270018,19.4390843 0.8285125,19.0627581 L9.24583168,11.1734086 L1.38150367,2.98808292 C1.00024272,2.59126006 1.01124445,1.96096281 1.4061219,1.57768732 L2.20641549,0.800907289 C2.6027183,0.416248315 3.23581292,0.425687512 3.62047189,0.821990325 C3.62165339,0.82320759 3.62283179,0.824427859 3.62400708,0.825651121 L11.5189644,9.04285637 Z" id="close"></path>
</svg>